<svg width="512" height="170" viewBox="0 0 512 170" fill="none" xmlns="http://www.w3.org/2000/svg">
  <defs>
    <linearGradient id="bg" x1="18" y1="18" x2="494" y2="152" gradientUnits="userSpaceOnUse">
      <stop stop-color="#111827"/>
      <stop offset="1" stop-color="#1F2937"/>
    </linearGradient>
    <linearGradient id="bubble" x1="66" y1="56" x2="194" y2="136" gradientUnits="userSpaceOnUse">
      <stop stop-color="#38BDF8"/>
      <stop offset="1" stop-color="#A78BFA"/>
    </linearGradient>
  </defs>
  <rect x="4" y="4" width="504" height="162" rx="28" fill="url(#bg)" stroke="#374151" stroke-width="8"/>
  <path d="M80 42H182C197.464 42 210 54.536 210 70V92C210 107.464 197.464 120 182 120H133.5L105 138V120H80C64.536 120 52 107.464 52 92V70C52 54.536 64.536 42 80 42Z" fill="url(#bubble)"/>
  <text x="247" y="110" font-size="72" font-family="Avenir, Helvetica, Arial, sans-serif" font-weight="700" fill="#F9FAFB">YAP</text>
  <circle cx="90" cy="80" r="7" fill="#111827"/>
  <circle cx="119" cy="80" r="7" fill="#111827"/>
  <circle cx="148" cy="80" r="7" fill="#111827"/>
</svg>
